<svg width="86" height="16" viewBox="0 0 86 16" fill="none" xmlns="http://www.w3.org/2000/svg">
<g id="Group 4457">
<rect id="Rectangle 3" opacity="0.66" y="7" width="2" height="2" rx="1" fill="#FFEA7B"/>
<rect id="Rectangle 9" opacity="0.66" x="6" y="4" width="2" height="8" rx="1" fill="#FFEA7B"/>
<rect id="Rectangle 8" opacity="0.66" x="12" y="1" width="2" height="14" rx="1" fill="#FFEA7B"/>
<rect id="Rectangle 14" opacity="0.66" x="18" y="6" width="2" height="4" rx="1" fill="#FFEA7B"/>
<rect id="Rectangle 15" opacity="0.66" x="24" width="2" height="16" rx="1" fill="#FFEA7B"/>
<rect id="Rectangle 34" opacity="0.66" x="30" y="1" width="2" height="14" rx="1" fill="#FFEA7B"/>
<rect id="Rectangle 33" opacity="0.66" x="36" y="3" width="2" height="10" rx="1" fill="#FFEA7B"/>
<rect id="Rectangle 16" opacity="0.66" x="42" y="3" width="2" height="10" rx="1" fill="#FFEA7B"/>
<rect id="Rectangle 18" opacity="0.66" x="48" y="3" width="2" height="10" rx="1" fill="#FFEA7B"/>
<rect id="Rectangle 22" opacity="0.66" x="54" y="1" width="2" height="14" rx="1" fill="#FFEA7B"/>
<rect id="Rectangle 23" opacity="0.66" x="60" y="3" width="2" height="10" rx="1" fill="#FFEA7B"/>
<rect id="Rectangle 28" opacity="0.66" x="66" width="2" height="16" rx="1" fill="#FFEA7B"/>
<rect id="Rectangle 29" opacity="0.66" x="72" y="3" width="2" height="10" rx="1" fill="#FFEA7B"/>
<rect id="Rectangle 30" opacity="0.66" x="78" y="6" width="2" height="4" rx="1" fill="#FFEA7B"/>
<rect id="Rectangle 32" opacity="0.66" x="84" y="7" width="2" height="2" rx="1" fill="#FFEA7B"/>
</g>
</svg>
