<svg width="1436" height="32" viewBox="0 0 1436 32" fill="none" xmlns="http://www.w3.org/2000/svg">
<rect opacity="0.66" y="15" width="2" height="2" rx="1" fill="#FFEA7B"/>
<rect opacity="0.66" x="6" y="12" width="2" height="8" rx="1" fill="#FFEA7B"/>
<rect opacity="0.66" x="12" y="9" width="2" height="14" rx="1" fill="#FFEA7B"/>
<rect opacity="0.66" x="18" y="14" width="2" height="4" rx="1" fill="#FFEA7B"/>
<rect opacity="0.66" x="24" y="8" width="2" height="16" rx="1" fill="#FFEA7B"/>
<rect opacity="0.66" x="30" y="9" width="2" height="14" rx="1" fill="#FFEA7B"/>
<rect opacity="0.66" x="36" y="11" width="2" height="10" rx="1" fill="#FFEA7B"/>
<rect opacity="0.66" x="42" y="11" width="2" height="10" rx="1" fill="#FFEA7B"/>
<rect opacity="0.66" x="48" y="11" width="2" height="10" rx="1" fill="#FFEA7B"/>
<rect opacity="0.66" x="54" y="9" width="2" height="14" rx="1" fill="#FFEA7B"/>
<rect opacity="0.66" x="60" y="11" width="2" height="10" rx="1" fill="#FFEA7B"/>
<rect opacity="0.66" x="66" y="8" width="2" height="16" rx="1" fill="#FFEA7B"/>
<rect opacity="0.66" x="72" y="11" width="2" height="10" rx="1" fill="#FFEA7B"/>
<rect opacity="0.66" x="78" y="14" width="2" height="4" rx="1" fill="#FFEA7B"/>
<rect opacity="0.66" x="84" y="15" width="2" height="2" rx="1" fill="#FFEA7B"/>
<g opacity="0.4">
<rect opacity="0.66" x="90" y="15" width="2" height="2" rx="1" fill="white"/>
<rect opacity="0.66" x="96" y="12" width="2" height="8" rx="1" fill="white"/>
<rect opacity="0.66" x="102" y="9" width="2" height="14" rx="1" fill="white"/>
<rect opacity="0.66" x="108" y="14" width="2" height="4" rx="1" fill="white"/>
<rect opacity="0.66" x="114" y="8" width="2" height="16" rx="1" fill="white"/>
<rect opacity="0.66" x="120" y="9" width="2" height="14" rx="1" fill="white"/>
<rect opacity="0.66" x="126" y="11" width="2" height="10" rx="1" fill="white"/>
<rect opacity="0.66" x="132" y="11" width="2" height="10" rx="1" fill="white"/>
<rect opacity="0.66" x="138" y="11" width="2" height="10" rx="1" fill="white"/>
<rect opacity="0.66" x="144" y="9" width="2" height="14" rx="1" fill="white"/>
<rect opacity="0.66" x="150" y="11" width="2" height="10" rx="1" fill="white"/>
<rect opacity="0.66" x="156" y="8" width="2" height="16" rx="1" fill="white"/>
<rect opacity="0.66" x="162" y="11" width="2" height="10" rx="1" fill="white"/>
<rect opacity="0.66" x="168" y="14" width="2" height="4" rx="1" fill="white"/>
<rect opacity="0.66" x="174" y="15" width="2" height="2" rx="1" fill="white"/>
<rect opacity="0.66" x="180" y="15" width="2" height="2" rx="1" fill="white"/>
<rect opacity="0.66" x="186" y="12" width="2" height="8" rx="1" fill="white"/>
<rect opacity="0.66" x="192" y="9" width="2" height="14" rx="1" fill="white"/>
<rect opacity="0.66" x="198" y="14" width="2" height="4" rx="1" fill="white"/>
<rect opacity="0.66" x="204" y="8" width="2" height="16" rx="1" fill="white"/>
<rect opacity="0.66" x="210" y="9" width="2" height="14" rx="1" fill="white"/>
<rect opacity="0.66" x="216" y="11" width="2" height="10" rx="1" fill="white"/>
<rect opacity="0.66" x="222" y="11" width="2" height="10" rx="1" fill="white"/>
<rect opacity="0.66" x="228" y="11" width="2" height="10" rx="1" fill="white"/>
<rect opacity="0.66" x="234" y="9" width="2" height="14" rx="1" fill="white"/>
<rect opacity="0.66" x="240" y="11" width="2" height="10" rx="1" fill="white"/>
<rect opacity="0.66" x="246" y="8" width="2" height="16" rx="1" fill="white"/>
<rect opacity="0.66" x="252" y="11" width="2" height="10" rx="1" fill="white"/>
<rect opacity="0.66" x="258" y="14" width="2" height="4" rx="1" fill="white"/>
<rect opacity="0.66" x="264" y="15" width="2" height="2" rx="1" fill="white"/>
<rect opacity="0.66" x="270" y="15" width="2" height="2" rx="1" fill="white"/>
<rect opacity="0.66" x="276" y="12" width="2" height="8" rx="1" fill="white"/>
<rect opacity="0.66" x="282" y="9" width="2" height="14" rx="1" fill="white"/>
<rect opacity="0.66" x="288" y="14" width="2" height="4" rx="1" fill="white"/>
<rect opacity="0.66" x="294" y="8" width="2" height="16" rx="1" fill="white"/>
<rect opacity="0.66" x="300" y="9" width="2" height="14" rx="1" fill="white"/>
<rect opacity="0.66" x="306" y="11" width="2" height="10" rx="1" fill="white"/>
<rect opacity="0.66" x="312" y="11" width="2" height="10" rx="1" fill="white"/>
<rect opacity="0.66" x="318" y="11" width="2" height="10" rx="1" fill="white"/>
<rect opacity="0.66" x="324" y="9" width="2" height="14" rx="1" fill="white"/>
<rect opacity="0.66" x="330" y="11" width="2" height="10" rx="1" fill="white"/>
<rect opacity="0.66" x="336" y="8" width="2" height="16" rx="1" fill="white"/>
<rect opacity="0.66" x="342" y="11" width="2" height="10" rx="1" fill="white"/>
<rect opacity="0.66" x="348" y="14" width="2" height="4" rx="1" fill="white"/>
<rect opacity="0.66" x="354" y="15" width="2" height="2" rx="1" fill="white"/>
<rect opacity="0.66" x="360" y="15" width="2" height="2" rx="1" fill="white"/>
<rect opacity="0.66" x="366" y="12" width="2" height="8" rx="1" fill="white"/>
<rect opacity="0.66" x="372" y="9" width="2" height="14" rx="1" fill="white"/>
<rect opacity="0.66" x="378" y="14" width="2" height="4" rx="1" fill="white"/>
<rect opacity="0.66" x="384" y="8" width="2" height="16" rx="1" fill="white"/>
<rect opacity="0.66" x="390" y="9" width="2" height="14" rx="1" fill="white"/>
<rect opacity="0.66" x="396" y="11" width="2" height="10" rx="1" fill="white"/>
<rect opacity="0.66" x="402" y="11" width="2" height="10" rx="1" fill="white"/>
<rect opacity="0.66" x="408" y="11" width="2" height="10" rx="1" fill="white"/>
<rect opacity="0.66" x="414" y="9" width="2" height="14" rx="1" fill="white"/>
<rect opacity="0.66" x="420" y="11" width="2" height="10" rx="1" fill="white"/>
<rect opacity="0.66" x="426" y="8" width="2" height="16" rx="1" fill="white"/>
<rect opacity="0.66" x="432" y="11" width="2" height="10" rx="1" fill="white"/>
<rect opacity="0.66" x="438" y="14" width="2" height="4" rx="1" fill="white"/>
<rect opacity="0.66" x="444" y="15" width="2" height="2" rx="1" fill="white"/>
<rect opacity="0.66" x="450" y="15" width="2" height="2" rx="1" fill="white"/>
<rect opacity="0.66" x="456" y="12" width="2" height="8" rx="1" fill="white"/>
<rect opacity="0.66" x="462" y="9" width="2" height="14" rx="1" fill="white"/>
<rect opacity="0.66" x="468" y="14" width="2" height="4" rx="1" fill="white"/>
<rect opacity="0.66" x="474" y="8" width="2" height="16" rx="1" fill="white"/>
<rect opacity="0.66" x="480" y="9" width="2" height="14" rx="1" fill="white"/>
<rect opacity="0.66" x="486" y="11" width="2" height="10" rx="1" fill="white"/>
<rect opacity="0.66" x="492" y="11" width="2" height="10" rx="1" fill="white"/>
<rect opacity="0.66" x="498" y="11" width="2" height="10" rx="1" fill="white"/>
<rect opacity="0.66" x="504" y="9" width="2" height="14" rx="1" fill="white"/>
<rect opacity="0.66" x="510" y="11" width="2" height="10" rx="1" fill="white"/>
<rect opacity="0.66" x="516" y="8" width="2" height="16" rx="1" fill="white"/>
<rect opacity="0.66" x="522" y="11" width="2" height="10" rx="1" fill="white"/>
<rect opacity="0.66" x="528" y="14" width="2" height="4" rx="1" fill="white"/>
<rect opacity="0.66" x="534" y="15" width="2" height="2" rx="1" fill="white"/>
<rect opacity="0.66" x="540" y="15" width="2" height="2" rx="1" fill="white"/>
<rect opacity="0.66" x="546" y="12" width="2" height="8" rx="1" fill="white"/>
<rect opacity="0.66" x="552" y="9" width="2" height="14" rx="1" fill="white"/>
<rect opacity="0.66" x="558" y="14" width="2" height="4" rx="1" fill="white"/>
<rect opacity="0.66" x="564" y="8" width="2" height="16" rx="1" fill="white"/>
<rect opacity="0.66" x="570" y="9" width="2" height="14" rx="1" fill="white"/>
<rect opacity="0.66" x="576" y="11" width="2" height="10" rx="1" fill="white"/>
<rect opacity="0.66" x="582" y="11" width="2" height="10" rx="1" fill="white"/>
<rect opacity="0.66" x="588" y="11" width="2" height="10" rx="1" fill="white"/>
<rect opacity="0.66" x="594" y="9" width="2" height="14" rx="1" fill="white"/>
<rect opacity="0.66" x="600" y="11" width="2" height="10" rx="1" fill="white"/>
<rect opacity="0.66" x="606" y="8" width="2" height="16" rx="1" fill="white"/>
<rect opacity="0.66" x="612" y="11" width="2" height="10" rx="1" fill="white"/>
<rect opacity="0.66" x="618" y="14" width="2" height="4" rx="1" fill="white"/>
<rect opacity="0.66" x="624" y="15" width="2" height="2" rx="1" fill="white"/>
<rect opacity="0.66" x="630" y="15" width="2" height="2" rx="1" fill="white"/>
<rect opacity="0.66" x="636" y="12" width="2" height="8" rx="1" fill="white"/>
<rect opacity="0.66" x="642" y="9" width="2" height="14" rx="1" fill="white"/>
<rect opacity="0.66" x="648" y="14" width="2" height="4" rx="1" fill="white"/>
<rect opacity="0.66" x="654" y="8" width="2" height="16" rx="1" fill="white"/>
<rect opacity="0.66" x="660" y="9" width="2" height="14" rx="1" fill="white"/>
<rect opacity="0.66" x="666" y="11" width="2" height="10" rx="1" fill="white"/>
<rect opacity="0.66" x="672" y="11" width="2" height="10" rx="1" fill="white"/>
<rect opacity="0.66" x="678" y="11" width="2" height="10" rx="1" fill="white"/>
<rect opacity="0.66" x="684" y="9" width="2" height="14" rx="1" fill="white"/>
<rect opacity="0.66" x="690" y="11" width="2" height="10" rx="1" fill="white"/>
<rect opacity="0.66" x="696" y="8" width="2" height="16" rx="1" fill="white"/>
<rect opacity="0.66" x="702" y="11" width="2" height="10" rx="1" fill="white"/>
<rect opacity="0.66" x="708" y="14" width="2" height="4" rx="1" fill="white"/>
<rect opacity="0.66" x="714" y="15" width="2" height="2" rx="1" fill="white"/>
<rect opacity="0.66" x="720" y="15" width="2" height="2" rx="1" fill="white"/>
<rect opacity="0.66" x="726" y="12" width="2" height="8" rx="1" fill="white"/>
<rect opacity="0.66" x="732" y="9" width="2" height="14" rx="1" fill="white"/>
<rect opacity="0.66" x="738" y="14" width="2" height="4" rx="1" fill="white"/>
<rect opacity="0.66" x="744" y="8" width="2" height="16" rx="1" fill="white"/>
<rect opacity="0.66" x="750" y="9" width="2" height="14" rx="1" fill="white"/>
<rect opacity="0.66" x="756" y="11" width="2" height="10" rx="1" fill="white"/>
<rect opacity="0.66" x="762" y="11" width="2" height="10" rx="1" fill="white"/>
<rect opacity="0.66" x="768" y="11" width="2" height="10" rx="1" fill="white"/>
<rect opacity="0.66" x="774" y="9" width="2" height="14" rx="1" fill="white"/>
<rect opacity="0.66" x="780" y="11" width="2" height="10" rx="1" fill="white"/>
<rect opacity="0.66" x="786" y="8" width="2" height="16" rx="1" fill="white"/>
<rect opacity="0.66" x="792" y="11" width="2" height="10" rx="1" fill="white"/>
<rect opacity="0.66" x="798" y="14" width="2" height="4" rx="1" fill="white"/>
<rect opacity="0.66" x="804" y="15" width="2" height="2" rx="1" fill="white"/>
<rect opacity="0.66" x="810" y="15" width="2" height="2" rx="1" fill="white"/>
<rect opacity="0.66" x="816" y="12" width="2" height="8" rx="1" fill="white"/>
<rect opacity="0.66" x="822" y="9" width="2" height="14" rx="1" fill="white"/>
<rect opacity="0.66" x="828" y="14" width="2" height="4" rx="1" fill="white"/>
<rect opacity="0.66" x="834" y="8" width="2" height="16" rx="1" fill="white"/>
<rect opacity="0.66" x="840" y="9" width="2" height="14" rx="1" fill="white"/>
<rect opacity="0.66" x="846" y="11" width="2" height="10" rx="1" fill="white"/>
<rect opacity="0.66" x="852" y="11" width="2" height="10" rx="1" fill="white"/>
<rect opacity="0.66" x="858" y="11" width="2" height="10" rx="1" fill="white"/>
<rect opacity="0.66" x="864" y="9" width="2" height="14" rx="1" fill="white"/>
<rect opacity="0.66" x="870" y="11" width="2" height="10" rx="1" fill="white"/>
<rect opacity="0.66" x="876" y="8" width="2" height="16" rx="1" fill="white"/>
<rect opacity="0.66" x="882" y="11" width="2" height="10" rx="1" fill="white"/>
<rect opacity="0.66" x="888" y="14" width="2" height="4" rx="1" fill="white"/>
<rect opacity="0.66" x="894" y="15" width="2" height="2" rx="1" fill="white"/>
<rect opacity="0.66" x="900" y="15" width="2" height="2" rx="1" fill="white"/>
<rect opacity="0.66" x="906" y="12" width="2" height="8" rx="1" fill="white"/>
<rect opacity="0.66" x="912" y="9" width="2" height="14" rx="1" fill="white"/>
<rect opacity="0.66" x="918" y="14" width="2" height="4" rx="1" fill="white"/>
<rect opacity="0.66" x="924" y="8" width="2" height="16" rx="1" fill="white"/>
<rect opacity="0.66" x="930" y="9" width="2" height="14" rx="1" fill="white"/>
<rect opacity="0.66" x="936" y="11" width="2" height="10" rx="1" fill="white"/>
<rect opacity="0.66" x="942" y="11" width="2" height="10" rx="1" fill="white"/>
<rect opacity="0.66" x="948" y="11" width="2" height="10" rx="1" fill="white"/>
<rect opacity="0.66" x="954" y="9" width="2" height="14" rx="1" fill="white"/>
<rect opacity="0.66" x="960" y="11" width="2" height="10" rx="1" fill="white"/>
<rect opacity="0.66" x="966" y="8" width="2" height="16" rx="1" fill="white"/>
<rect opacity="0.66" x="972" y="11" width="2" height="10" rx="1" fill="white"/>
<rect opacity="0.66" x="978" y="14" width="2" height="4" rx="1" fill="white"/>
<rect opacity="0.66" x="984" y="15" width="2" height="2" rx="1" fill="white"/>
<rect opacity="0.66" x="990" y="15" width="2" height="2" rx="1" fill="white"/>
<rect opacity="0.66" x="996" y="12" width="2" height="8" rx="1" fill="white"/>
<rect opacity="0.66" x="1002" y="9" width="2" height="14" rx="1" fill="white"/>
<rect opacity="0.66" x="1008" y="14" width="2" height="4" rx="1" fill="white"/>
<rect opacity="0.66" x="1014" y="8" width="2" height="16" rx="1" fill="white"/>
<rect opacity="0.66" x="1020" y="9" width="2" height="14" rx="1" fill="white"/>
<rect opacity="0.66" x="1026" y="11" width="2" height="10" rx="1" fill="white"/>
<rect opacity="0.66" x="1032" y="11" width="2" height="10" rx="1" fill="white"/>
<rect opacity="0.66" x="1038" y="11" width="2" height="10" rx="1" fill="white"/>
<rect opacity="0.66" x="1044" y="9" width="2" height="14" rx="1" fill="white"/>
<rect opacity="0.66" x="1050" y="11" width="2" height="10" rx="1" fill="white"/>
<rect opacity="0.66" x="1056" y="8" width="2" height="16" rx="1" fill="white"/>
<rect opacity="0.66" x="1062" y="11" width="2" height="10" rx="1" fill="white"/>
<rect opacity="0.66" x="1068" y="14" width="2" height="4" rx="1" fill="white"/>
<rect opacity="0.66" x="1074" y="15" width="2" height="2" rx="1" fill="white"/>
<rect opacity="0.66" x="1080" y="15" width="2" height="2" rx="1" fill="white"/>
<rect opacity="0.66" x="1086" y="12" width="2" height="8" rx="1" fill="white"/>
<rect opacity="0.66" x="1092" y="9" width="2" height="14" rx="1" fill="white"/>
<rect opacity="0.66" x="1098" y="14" width="2" height="4" rx="1" fill="white"/>
<rect opacity="0.66" x="1104" y="8" width="2" height="16" rx="1" fill="white"/>
<rect opacity="0.66" x="1110" y="9" width="2" height="14" rx="1" fill="white"/>
<rect opacity="0.66" x="1116" y="11" width="2" height="10" rx="1" fill="white"/>
<rect opacity="0.66" x="1122" y="11" width="2" height="10" rx="1" fill="white"/>
<rect opacity="0.66" x="1128" y="11" width="2" height="10" rx="1" fill="white"/>
<rect opacity="0.66" x="1134" y="9" width="2" height="14" rx="1" fill="white"/>
<rect opacity="0.66" x="1140" y="11" width="2" height="10" rx="1" fill="white"/>
<rect opacity="0.66" x="1146" y="8" width="2" height="16" rx="1" fill="white"/>
<rect opacity="0.66" x="1152" y="11" width="2" height="10" rx="1" fill="white"/>
<rect opacity="0.66" x="1158" y="14" width="2" height="4" rx="1" fill="white"/>
<rect opacity="0.66" x="1164" y="15" width="2" height="2" rx="1" fill="white"/>
<rect opacity="0.66" x="1170" y="15" width="2" height="2" rx="1" fill="white"/>
<rect opacity="0.66" x="1176" y="12" width="2" height="8" rx="1" fill="white"/>
<rect opacity="0.66" x="1182" y="9" width="2" height="14" rx="1" fill="white"/>
<rect opacity="0.66" x="1188" y="14" width="2" height="4" rx="1" fill="white"/>
<rect opacity="0.66" x="1194" y="8" width="2" height="16" rx="1" fill="white"/>
<rect opacity="0.66" x="1200" y="9" width="2" height="14" rx="1" fill="white"/>
<rect opacity="0.66" x="1206" y="11" width="2" height="10" rx="1" fill="white"/>
<rect opacity="0.66" x="1212" y="11" width="2" height="10" rx="1" fill="white"/>
<rect opacity="0.66" x="1218" y="11" width="2" height="10" rx="1" fill="white"/>
<rect opacity="0.66" x="1224" y="9" width="2" height="14" rx="1" fill="white"/>
<rect opacity="0.66" x="1230" y="11" width="2" height="10" rx="1" fill="white"/>
<rect opacity="0.66" x="1236" y="8" width="2" height="16" rx="1" fill="white"/>
<rect opacity="0.66" x="1242" y="11" width="2" height="10" rx="1" fill="white"/>
<rect opacity="0.66" x="1248" y="14" width="2" height="4" rx="1" fill="white"/>
<rect opacity="0.66" x="1254" y="15" width="2" height="2" rx="1" fill="white"/>
<rect opacity="0.66" x="1260" y="15" width="2" height="2" rx="1" fill="white"/>
<rect opacity="0.66" x="1266" y="12" width="2" height="8" rx="1" fill="white"/>
<rect opacity="0.66" x="1272" y="9" width="2" height="14" rx="1" fill="white"/>
<rect opacity="0.66" x="1278" y="14" width="2" height="4" rx="1" fill="white"/>
<rect opacity="0.66" x="1284" y="8" width="2" height="16" rx="1" fill="white"/>
<rect opacity="0.66" x="1290" y="9" width="2" height="14" rx="1" fill="white"/>
<rect opacity="0.66" x="1296" y="11" width="2" height="10" rx="1" fill="white"/>
<rect opacity="0.66" x="1302" y="11" width="2" height="10" rx="1" fill="white"/>
<rect opacity="0.66" x="1308" y="11" width="2" height="10" rx="1" fill="white"/>
<rect opacity="0.66" x="1314" y="9" width="2" height="14" rx="1" fill="white"/>
<rect opacity="0.66" x="1320" y="11" width="2" height="10" rx="1" fill="white"/>
<rect opacity="0.66" x="1326" y="8" width="2" height="16" rx="1" fill="white"/>
<rect opacity="0.66" x="1332" y="11" width="2" height="10" rx="1" fill="white"/>
<rect opacity="0.66" x="1338" y="14" width="2" height="4" rx="1" fill="white"/>
<rect opacity="0.66" x="1344" y="15" width="2" height="2" rx="1" fill="white"/>
<rect opacity="0.66" x="1350" y="15" width="2" height="2" rx="1" fill="white"/>
<rect opacity="0.66" x="1356" y="12" width="2" height="8" rx="1" fill="white"/>
<rect opacity="0.66" x="1362" y="9" width="2" height="14" rx="1" fill="white"/>
<rect opacity="0.66" x="1368" y="14" width="2" height="4" rx="1" fill="white"/>
<rect opacity="0.66" x="1374" y="8" width="2" height="16" rx="1" fill="white"/>
<rect opacity="0.66" x="1380" y="9" width="2" height="14" rx="1" fill="white"/>
<rect opacity="0.66" x="1386" y="11" width="2" height="10" rx="1" fill="white"/>
<rect opacity="0.66" x="1392" y="11" width="2" height="10" rx="1" fill="white"/>
<rect opacity="0.66" x="1398" y="11" width="2" height="10" rx="1" fill="white"/>
<rect opacity="0.66" x="1404" y="9" width="2" height="14" rx="1" fill="white"/>
<rect opacity="0.66" x="1410" y="11" width="2" height="10" rx="1" fill="white"/>
<rect opacity="0.66" x="1416" y="8" width="2" height="16" rx="1" fill="white"/>
<rect opacity="0.66" x="1422" y="11" width="2" height="10" rx="1" fill="white"/>
<rect opacity="0.66" x="1428" y="14" width="2" height="4" rx="1" fill="white"/>
<rect opacity="0.66" x="1434" y="15" width="2" height="2" rx="1" fill="white"/>
</g>
</svg>
