<svg width="32" height="32" viewBox="0 0 32 32" fill="none" xmlns="http://www.w3.org/2000/svg">
<g id="AI" clip-path="url(#clip0_251_31081)">
<path id="Vector" d="M15.9999 32.0001C16.767 32.0001 17.517 31.7793 18.1548 31.3656C18.7927 30.952 19.2898 30.364 19.5834 29.6761C19.877 28.9882 19.9538 28.2312 19.8041 27.501C19.6545 26.7707 19.2851 26.0999 18.7426 25.5734C18.2001 25.0469 17.509 24.6883 16.7566 24.543C16.0042 24.3978 15.2243 24.4723 14.5155 24.7573C13.8068 25.0422 13.201 25.5248 12.7748 26.1439C12.3486 26.763 12.1211 27.4908 12.1211 28.2354C12.1211 29.2339 12.5298 30.1914 13.2572 30.8975C13.9846 31.6035 14.9712 32.0001 15.9999 32.0001Z" fill="#3C3779"/>
<path id="Vector_2" d="M20.2085 0H11.7721L0 31.5294H7.12727L16 7.78824L24.8533 31.5294H32L20.2085 0Z" fill="#3C3779"/>
</g>
<defs>
<clipPath id="clip0_251_31081">
<rect width="32" height="32" fill="white"/>
</clipPath>
</defs>
</svg>
