<svg width="24" height="24" viewBox="0 0 24 24" fill="none" xmlns="http://www.w3.org/2000/svg">
<path d="M21 16V6.08333L17.8908 3H11C10.4477 3 10 3.44772 10 4V5H8V4C8 2.34315 9.34315 1 11 1H17.8908C18.4183 1 18.9245 1.20842 19.299 1.57988L22.4083 4.66322C22.787 5.03876 23 5.55 23 6.08333V16C23 17.6569 21.6569 19 20 19H16V17H20C20.5523 17 21 16.5523 21 16Z" fill="white"/>
<path d="M15 10.0833V20C15 21.1046 14.1046 22 13 22H4C2.89543 22 2 21.1046 2 20V8C2 6.89543 2.89543 6 4 6H10.8908C11.1545 6 11.4076 6.10421 11.5949 6.28994L14.7041 9.37328C14.8935 9.56105 15 9.81667 15 10.0833Z" stroke="white" stroke-width="2"/>
<path d="M6 15H11M6 18H8" stroke="white" stroke-width="2" stroke-linecap="round" stroke-linejoin="round"/>
</svg>
