<svg width="50" height="50" viewBox="0 0 50 50" fill="none" xmlns="http://www.w3.org/2000/svg">
<g filter="url(#filter0_d_107_10181)">
<g clip-path="url(#clip0_107_10181)">
<path fill-rule="evenodd" clip-rule="evenodd" d="M20.875 14.2522H23.125C23.5375 14.2522 23.875 14.5897 23.875 15.0022V27.0022C23.875 27.4147 23.5375 27.7522 23.125 27.7522H20.875C20.4625 27.7522 20.125 27.4147 20.125 27.0022V15.0022C20.125 14.5897 20.4625 14.2522 20.875 14.2522ZM26.875 14.2522H29.125C29.5375 14.2522 29.875 14.5897 29.875 15.0022V27.0022C29.875 27.4147 29.5375 27.7522 29.125 27.7522H26.875C26.4625 27.7522 26.125 27.4147 26.125 27.0022V15.0022C26.125 14.5897 26.4625 14.2522 26.875 14.2522Z" fill="white"/>
</g>
<rect x="5" y="1" width="40" height="40" rx="9" stroke="white" stroke-width="2" shape-rendering="crispEdges"/>
</g>
<defs>
<filter id="filter0_d_107_10181" x="0" y="0" width="50" height="50" filterUnits="userSpaceOnUse" color-interpolation-filters="sRGB">
<feFlood flood-opacity="0" result="BackgroundImageFix"/>
<feColorMatrix in="SourceAlpha" type="matrix" values="0 0 0 0 0 0 0 0 0 0 0 0 0 0 0 0 0 0 127 0" result="hardAlpha"/>
<feOffset dy="4"/>
<feGaussianBlur stdDeviation="2"/>
<feComposite in2="hardAlpha" operator="out"/>
<feColorMatrix type="matrix" values="0 0 0 0 0 0 0 0 0 0 0 0 0 0 0 0 0 0 0.05 0"/>
<feBlend mode="normal" in2="BackgroundImageFix" result="effect1_dropShadow_107_10181"/>
<feBlend mode="normal" in="SourceGraphic" in2="effect1_dropShadow_107_10181" result="shape"/>
</filter>
<clipPath id="clip0_107_10181">
<rect width="18" height="18" fill="white" transform="translate(16 12)"/>
</clipPath>
</defs>
</svg>
