<svg width="24" height="24" viewBox="0 0 24 24" fill="none" xmlns="http://www.w3.org/2000/svg">
<path d="M16.6154 12C16.6154 14.651 14.549 16.8 12 16.8C9.45099 16.8 7.38462 14.651 7.38462 12M16.6154 12C16.6154 9.34903 14.549 7.2 12 7.2C9.45099 7.2 7.38462 9.34903 7.38462 12M16.6154 12H20M7.38462 12H4M2 4H5.10673C5.57409 4 6.01611 4.22094 6.30807 4.60049L8.92308 8M22 20H18.8933C18.4259 20 17.9839 19.7791 17.6919 19.3995L15.0769 16M2 20H5.10673C5.57409 20 6.01611 19.7791 6.30807 19.3995L8.92308 16M22 4H18.8933C18.4259 4 17.9839 4.22094 17.6919 4.60049L15.0769 8" stroke="white" stroke-width="2" stroke-linecap="round" stroke-linejoin="round"/>
</svg>
