<svg width="24" height="24" viewBox="0 0 24 24" fill="none" xmlns="http://www.w3.org/2000/svg">
<circle cx="17.5" cy="17.5" r="3.5" stroke="white" stroke-width="2"/>
<path d="M20.2929 22.7071C20.6834 23.0976 21.3166 23.0976 21.7071 22.7071C22.0976 22.3166 22.0976 21.6834 21.7071 21.2929L20.2929 22.7071ZM18.2929 20.7071L20.2929 22.7071L21.7071 21.2929L19.7071 19.2929L18.2929 20.7071Z" fill="white"/>
<path d="M7 12H8.69098C8.88037 12 9.0535 12.107 9.1382 12.2764L9.82111 13.6422C9.89482 13.7896 10.1052 13.7896 10.1789 13.6422L12.8211 8.35777C12.8948 8.21036 13.1052 8.21036 13.1789 8.35777L13.8618 9.72361C13.9465 9.893 14.1196 10 14.309 10H17" stroke="white" stroke-width="2" stroke-linecap="round" stroke-linejoin="round"/>
<path d="M21 10V5C21 3.89543 20.1046 3 19 3H5C3.89543 3 3 3.89543 3 5V19C3 20.1046 3.89543 21 5 21H10" stroke="white" stroke-width="2" stroke-linecap="round" stroke-linejoin="round"/>
</svg>
