<svg width="24" height="24" viewBox="0 0 24 24" fill="none" xmlns="http://www.w3.org/2000/svg">
<g id="text-action-check-24-Regular 1">
<path id="Vector" d="M3 4C3 3.58579 3.33579 3.25 3.75 3.25H20.25C20.6642 3.25 21 3.58579 21 4C21 4.41421 20.6642 4.75 20.25 4.75H3.75C3.33579 4.75 3 4.41421 3 4Z" fill="url(#paint0_linear_195_10937)"/>
<path id="Vector_2" d="M3.75 8.25C3.33579 8.25 3 8.58579 3 9C3 9.41421 3.33579 9.75 3.75 9.75H20.25C20.6642 9.75 21 9.41421 21 9C21 8.58579 20.6642 8.25 20.25 8.25H3.75Z" fill="url(#paint1_linear_195_10937)"/>
<path id="Vector_3" d="M3.75 13.25C3.33579 13.25 3 13.5858 3 14C3 14.4142 3.33579 14.75 3.75 14.75H11.25C11.6642 14.75 12 14.4142 12 14C12 13.5858 11.6642 13.25 11.25 13.25H3.75Z" fill="url(#paint2_linear_195_10937)"/>
<path id="Vector_4" d="M23.7358 15.3147C24.0287 15.0218 24.0287 14.547 23.7358 14.2541C23.443 13.9612 22.9681 13.9612 22.6752 14.2541L17.4147 19.5146C17.2683 19.661 17.0308 19.661 16.8844 19.5146L14.45 17.0802C14.1571 16.7873 13.6822 16.7873 13.3894 17.0802C13.0965 17.3731 13.0965 17.848 13.3894 18.1409L15.8237 20.5752C16.5559 21.3075 17.7431 21.3075 18.4754 20.5752L23.7358 15.3147Z" fill="url(#paint3_linear_195_10937)"/>
</g>
<defs>
<linearGradient id="paint0_linear_195_10937" x1="12" y1="3.25" x2="12" y2="4.75" gradientUnits="userSpaceOnUse">
<stop stop-color="#D4B126"/>
<stop offset="1" stop-color="#D43281"/>
</linearGradient>
<linearGradient id="paint1_linear_195_10937" x1="12" y1="8.25" x2="12" y2="9.75" gradientUnits="userSpaceOnUse">
<stop stop-color="#D4B126"/>
<stop offset="1" stop-color="#D43281"/>
</linearGradient>
<linearGradient id="paint2_linear_195_10937" x1="7.5" y1="13.25" x2="7.5" y2="14.75" gradientUnits="userSpaceOnUse">
<stop stop-color="#D4B126"/>
<stop offset="1" stop-color="#D43281"/>
</linearGradient>
<linearGradient id="paint3_linear_195_10937" x1="18.5626" y1="14.0344" x2="18.5626" y2="21.1244" gradientUnits="userSpaceOnUse">
<stop stop-color="#D4B126"/>
<stop offset="1" stop-color="#D43281"/>
</linearGradient>
</defs>
</svg>
