<svg width="24" height="24" viewBox="0 0 24 24" fill="none" xmlns="http://www.w3.org/2000/svg">
<path d="M14 1C14.4142 1 14.75 1.33579 14.75 1.75V5.25C14.75 5.66421 14.4142 6 14 6C13.5858 6 13.25 5.66421 13.25 5.25V1.75C13.25 1.33579 13.5858 1 14 1Z" fill="url(#paint0_linear_195_10924)"/>
<path d="M14.75 15V18.25C14.75 18.6642 14.4142 19 14 19C13.5858 19 13.25 18.6642 13.25 18.25V15C13.25 14.5858 13.5858 14.25 14 14.25C14.4142 14.25 14.75 14.5858 14.75 15Z" fill="url(#paint1_linear_195_10924)"/>
<path d="M14.5303 9.46967C14.8232 9.76256 14.8232 10.2374 14.5303 10.5303L3.53033 21.5303C3.23744 21.8232 2.76256 21.8232 2.46967 21.5303C2.17678 21.2374 2.17678 20.7626 2.46967 20.4697L13.4697 9.46967C13.7626 9.17678 14.2374 9.17678 14.5303 9.46967Z" fill="url(#paint2_linear_195_10924)"/>
<path d="M22.25 10.75C22.6642 10.75 23 10.4142 23 10C23 9.58579 22.6642 9.25 22.25 9.25H18.75C18.3358 9.25 18 9.58579 18 10C18 10.4142 18.3358 10.75 18.75 10.75H22.25Z" fill="url(#paint3_linear_195_10924)"/>
<path d="M9 10.75C9.41422 10.75 9.75 10.4142 9.75 10C9.75 9.58579 9.41422 9.25 9 9.25H5.75C5.33579 9.25 5 9.58579 5 10C5 10.4142 5.33579 10.75 5.75 10.75H9Z" fill="url(#paint4_linear_195_10924)"/>
<path d="M20.3639 3.63593C20.6568 3.92882 20.6568 4.4037 20.3639 4.69659L17.8891 7.17146C17.5962 7.46436 17.1213 7.46436 16.8284 7.17146C16.5355 6.87857 16.5355 6.4037 16.8284 6.1108L19.3033 3.63593C19.5962 3.34304 20.0711 3.34304 20.3639 3.63593Z" fill="url(#paint5_linear_195_10924)"/>
<path d="M8.69672 3.63593C8.40382 3.34304 7.92895 3.34304 7.63605 3.63593C7.34316 3.92882 7.34316 4.4037 7.63605 4.69659L10.1109 7.17146C10.4038 7.46436 10.8787 7.46436 11.1716 7.17146C11.4645 6.87857 11.4645 6.4037 11.1716 6.1108L8.69672 3.63593Z" fill="url(#paint6_linear_195_10924)"/>
<path d="M17.8891 12.8283C17.5962 12.5354 17.1213 12.5354 16.8284 12.8283C16.5355 13.1212 16.5355 13.5961 16.8284 13.889L19.3033 16.3639C19.5962 16.6568 20.0711 16.6568 20.364 16.3639C20.6569 16.071 20.6568 15.5961 20.364 15.3032L17.8891 12.8283Z" fill="url(#paint7_linear_195_10924)"/>
<defs>
<linearGradient id="paint0_linear_195_10924" x1="14.2945" y1="0.34555" x2="11.0443" y2="2.19737" gradientUnits="userSpaceOnUse">
<stop stop-color="#D4B721"/>
<stop offset="0.911458" stop-color="#D4218C"/>
<stop offset="1" stop-color="#3648A9"/>
</linearGradient>
<linearGradient id="paint1_linear_195_10924" x1="14.2945" y1="13.6283" x2="11.1281" y2="15.5273" gradientUnits="userSpaceOnUse">
<stop stop-color="#D4B721"/>
<stop offset="0.911458" stop-color="#D4218C"/>
<stop offset="1" stop-color="#3648A9"/>
</linearGradient>
<linearGradient id="paint2_linear_195_10924" x1="10.9542" y1="7.61388" x2="3.16623" y2="22.4044" gradientUnits="userSpaceOnUse">
<stop stop-color="#D4B721"/>
<stop offset="0.911458" stop-color="#D4218C"/>
<stop offset="1" stop-color="#3648A9"/>
</linearGradient>
<linearGradient id="paint3_linear_195_10924" x1="21.4817" y1="9.05366" x2="21.1323" y2="11.2654" gradientUnits="userSpaceOnUse">
<stop stop-color="#D4B721"/>
<stop offset="0.911458" stop-color="#D4218C"/>
<stop offset="1" stop-color="#3648A9"/>
</linearGradient>
<linearGradient id="paint4_linear_195_10924" x1="8.30759" y1="9.05366" x2="7.94079" y2="11.2596" gradientUnits="userSpaceOnUse">
<stop stop-color="#D4B721"/>
<stop offset="0.911458" stop-color="#D4218C"/>
<stop offset="1" stop-color="#3648A9"/>
</linearGradient>
<linearGradient id="paint5_linear_195_10924" x1="19.3766" y1="2.89599" x2="16.9001" y2="7.59923" gradientUnits="userSpaceOnUse">
<stop stop-color="#D4B721"/>
<stop offset="0.911458" stop-color="#D4218C"/>
<stop offset="1" stop-color="#3648A9"/>
</linearGradient>
<linearGradient id="paint6_linear_195_10924" x1="10.1843" y1="2.89599" x2="7.70778" y2="7.59926" gradientUnits="userSpaceOnUse">
<stop stop-color="#D4B721"/>
<stop offset="0.911458" stop-color="#D4218C"/>
<stop offset="1" stop-color="#3648A9"/>
</linearGradient>
<linearGradient id="paint7_linear_195_10924" x1="19.3766" y1="12.0884" x2="16.9001" y2="16.7917" gradientUnits="userSpaceOnUse">
<stop stop-color="#D4B721"/>
<stop offset="0.911458" stop-color="#D4218C"/>
<stop offset="1" stop-color="#3648A9"/>
</linearGradient>
</defs>
</svg>
