<svg width="1346" height="16" viewBox="0 0 1346 16" fill="none" xmlns="http://www.w3.org/2000/svg">
<g opacity="0.4">
<rect opacity="0.66" y="7" width="2" height="2" rx="1" fill="white"/>
<rect opacity="0.66" x="6" y="4" width="2" height="8" rx="1" fill="white"/>
<rect opacity="0.66" x="12" y="1" width="2" height="14" rx="1" fill="white"/>
<rect opacity="0.66" x="18" y="6" width="2" height="4" rx="1" fill="white"/>
<rect opacity="0.66" x="24" width="2" height="16" rx="1" fill="white"/>
<rect opacity="0.66" x="30" y="1" width="2" height="14" rx="1" fill="white"/>
<rect opacity="0.66" x="36" y="3" width="2" height="10" rx="1" fill="white"/>
<rect opacity="0.66" x="42" y="3" width="2" height="10" rx="1" fill="white"/>
<rect opacity="0.66" x="48" y="3" width="2" height="10" rx="1" fill="white"/>
<rect opacity="0.66" x="54" y="1" width="2" height="14" rx="1" fill="white"/>
<rect opacity="0.66" x="60" y="3" width="2" height="10" rx="1" fill="white"/>
<rect opacity="0.66" x="66" width="2" height="16" rx="1" fill="white"/>
<rect opacity="0.66" x="72" y="3" width="2" height="10" rx="1" fill="white"/>
<rect opacity="0.66" x="78" y="6" width="2" height="4" rx="1" fill="white"/>
<rect opacity="0.66" x="84" y="7" width="2" height="2" rx="1" fill="white"/>
<rect opacity="0.66" x="90" y="7" width="2" height="2" rx="1" fill="white"/>
<rect opacity="0.66" x="96" y="4" width="2" height="8" rx="1" fill="white"/>
<rect opacity="0.66" x="102" y="1" width="2" height="14" rx="1" fill="white"/>
<rect opacity="0.66" x="108" y="6" width="2" height="4" rx="1" fill="white"/>
<rect opacity="0.66" x="114" width="2" height="16" rx="1" fill="white"/>
<rect opacity="0.66" x="120" y="1" width="2" height="14" rx="1" fill="white"/>
<rect opacity="0.66" x="126" y="3" width="2" height="10" rx="1" fill="white"/>
<rect opacity="0.66" x="132" y="3" width="2" height="10" rx="1" fill="white"/>
<rect opacity="0.66" x="138" y="3" width="2" height="10" rx="1" fill="white"/>
<rect opacity="0.66" x="144" y="1" width="2" height="14" rx="1" fill="white"/>
<rect opacity="0.66" x="150" y="3" width="2" height="10" rx="1" fill="white"/>
<rect opacity="0.66" x="156" width="2" height="16" rx="1" fill="white"/>
<rect opacity="0.66" x="162" y="3" width="2" height="10" rx="1" fill="white"/>
<rect opacity="0.66" x="168" y="6" width="2" height="4" rx="1" fill="white"/>
<rect opacity="0.66" x="174" y="7" width="2" height="2" rx="1" fill="white"/>
<rect opacity="0.66" x="180" y="7" width="2" height="2" rx="1" fill="white"/>
<rect opacity="0.66" x="186" y="4" width="2" height="8" rx="1" fill="white"/>
<rect opacity="0.66" x="192" y="1" width="2" height="14" rx="1" fill="white"/>
<rect opacity="0.66" x="198" y="6" width="2" height="4" rx="1" fill="white"/>
<rect opacity="0.66" x="204" width="2" height="16" rx="1" fill="white"/>
<rect opacity="0.66" x="210" y="1" width="2" height="14" rx="1" fill="white"/>
<rect opacity="0.66" x="216" y="3" width="2" height="10" rx="1" fill="white"/>
<rect opacity="0.66" x="222" y="3" width="2" height="10" rx="1" fill="white"/>
<rect opacity="0.66" x="228" y="3" width="2" height="10" rx="1" fill="white"/>
<rect opacity="0.66" x="234" y="1" width="2" height="14" rx="1" fill="white"/>
<rect opacity="0.66" x="240" y="3" width="2" height="10" rx="1" fill="white"/>
<rect opacity="0.66" x="246" width="2" height="16" rx="1" fill="white"/>
<rect opacity="0.66" x="252" y="3" width="2" height="10" rx="1" fill="white"/>
<rect opacity="0.66" x="258" y="6" width="2" height="4" rx="1" fill="white"/>
<rect opacity="0.66" x="264" y="7" width="2" height="2" rx="1" fill="white"/>
<rect opacity="0.66" x="270" y="7" width="2" height="2" rx="1" fill="white"/>
<rect opacity="0.66" x="276" y="4" width="2" height="8" rx="1" fill="white"/>
<rect opacity="0.66" x="282" y="1" width="2" height="14" rx="1" fill="white"/>
<rect opacity="0.66" x="288" y="6" width="2" height="4" rx="1" fill="white"/>
<rect opacity="0.66" x="294" width="2" height="16" rx="1" fill="white"/>
<rect opacity="0.66" x="300" y="1" width="2" height="14" rx="1" fill="white"/>
<rect opacity="0.66" x="306" y="3" width="2" height="10" rx="1" fill="white"/>
<rect opacity="0.66" x="312" y="3" width="2" height="10" rx="1" fill="white"/>
<rect opacity="0.66" x="318" y="3" width="2" height="10" rx="1" fill="white"/>
<rect opacity="0.66" x="324" y="1" width="2" height="14" rx="1" fill="white"/>
<rect opacity="0.66" x="330" y="3" width="2" height="10" rx="1" fill="white"/>
<rect opacity="0.66" x="336" width="2" height="16" rx="1" fill="white"/>
<rect opacity="0.66" x="342" y="3" width="2" height="10" rx="1" fill="white"/>
<rect opacity="0.66" x="348" y="6" width="2" height="4" rx="1" fill="white"/>
<rect opacity="0.66" x="354" y="7" width="2" height="2" rx="1" fill="white"/>
<rect opacity="0.66" x="360" y="7" width="2" height="2" rx="1" fill="white"/>
<rect opacity="0.66" x="366" y="4" width="2" height="8" rx="1" fill="white"/>
<rect opacity="0.66" x="372" y="1" width="2" height="14" rx="1" fill="white"/>
<rect opacity="0.66" x="378" y="6" width="2" height="4" rx="1" fill="white"/>
<rect opacity="0.66" x="384" width="2" height="16" rx="1" fill="white"/>
<rect opacity="0.66" x="390" y="1" width="2" height="14" rx="1" fill="white"/>
<rect opacity="0.66" x="396" y="3" width="2" height="10" rx="1" fill="white"/>
<rect opacity="0.66" x="402" y="3" width="2" height="10" rx="1" fill="white"/>
<rect opacity="0.66" x="408" y="3" width="2" height="10" rx="1" fill="white"/>
<rect opacity="0.66" x="414" y="1" width="2" height="14" rx="1" fill="white"/>
<rect opacity="0.66" x="420" y="3" width="2" height="10" rx="1" fill="white"/>
<rect opacity="0.66" x="426" width="2" height="16" rx="1" fill="white"/>
<rect opacity="0.66" x="432" y="3" width="2" height="10" rx="1" fill="white"/>
<rect opacity="0.66" x="438" y="6" width="2" height="4" rx="1" fill="white"/>
<rect opacity="0.66" x="444" y="7" width="2" height="2" rx="1" fill="white"/>
<rect opacity="0.66" x="450" y="7" width="2" height="2" rx="1" fill="white"/>
<rect opacity="0.66" x="456" y="4" width="2" height="8" rx="1" fill="white"/>
<rect opacity="0.66" x="462" y="1" width="2" height="14" rx="1" fill="white"/>
<rect opacity="0.66" x="468" y="6" width="2" height="4" rx="1" fill="white"/>
<rect opacity="0.66" x="474" width="2" height="16" rx="1" fill="white"/>
<rect opacity="0.66" x="480" y="1" width="2" height="14" rx="1" fill="white"/>
<rect opacity="0.66" x="486" y="3" width="2" height="10" rx="1" fill="white"/>
<rect opacity="0.66" x="492" y="3" width="2" height="10" rx="1" fill="white"/>
<rect opacity="0.66" x="498" y="3" width="2" height="10" rx="1" fill="white"/>
<rect opacity="0.66" x="504" y="1" width="2" height="14" rx="1" fill="white"/>
<rect opacity="0.66" x="510" y="3" width="2" height="10" rx="1" fill="white"/>
<rect opacity="0.66" x="516" width="2" height="16" rx="1" fill="white"/>
<rect opacity="0.66" x="522" y="3" width="2" height="10" rx="1" fill="white"/>
<rect opacity="0.66" x="528" y="6" width="2" height="4" rx="1" fill="white"/>
<rect opacity="0.66" x="534" y="7" width="2" height="2" rx="1" fill="white"/>
<rect opacity="0.66" x="540" y="7" width="2" height="2" rx="1" fill="white"/>
<rect opacity="0.66" x="546" y="4" width="2" height="8" rx="1" fill="white"/>
<rect opacity="0.66" x="552" y="1" width="2" height="14" rx="1" fill="white"/>
<rect opacity="0.66" x="558" y="6" width="2" height="4" rx="1" fill="white"/>
<rect opacity="0.66" x="564" width="2" height="16" rx="1" fill="white"/>
<rect opacity="0.66" x="570" y="1" width="2" height="14" rx="1" fill="white"/>
<rect opacity="0.66" x="576" y="3" width="2" height="10" rx="1" fill="white"/>
<rect opacity="0.66" x="582" y="3" width="2" height="10" rx="1" fill="white"/>
<rect opacity="0.66" x="588" y="3" width="2" height="10" rx="1" fill="white"/>
<rect opacity="0.66" x="594" y="1" width="2" height="14" rx="1" fill="white"/>
<rect opacity="0.66" x="600" y="3" width="2" height="10" rx="1" fill="white"/>
<rect opacity="0.66" x="606" width="2" height="16" rx="1" fill="white"/>
<rect opacity="0.66" x="612" y="3" width="2" height="10" rx="1" fill="white"/>
<rect opacity="0.66" x="618" y="6" width="2" height="4" rx="1" fill="white"/>
<rect opacity="0.66" x="624" y="7" width="2" height="2" rx="1" fill="white"/>
<rect opacity="0.66" x="630" y="7" width="2" height="2" rx="1" fill="white"/>
<rect opacity="0.66" x="636" y="4" width="2" height="8" rx="1" fill="white"/>
<rect opacity="0.66" x="642" y="1" width="2" height="14" rx="1" fill="white"/>
<rect opacity="0.66" x="648" y="6" width="2" height="4" rx="1" fill="white"/>
<rect opacity="0.66" x="654" width="2" height="16" rx="1" fill="white"/>
<rect opacity="0.66" x="660" y="1" width="2" height="14" rx="1" fill="white"/>
<rect opacity="0.66" x="666" y="3" width="2" height="10" rx="1" fill="white"/>
<rect opacity="0.66" x="672" y="3" width="2" height="10" rx="1" fill="white"/>
<rect opacity="0.66" x="678" y="3" width="2" height="10" rx="1" fill="white"/>
<rect opacity="0.66" x="684" y="1" width="2" height="14" rx="1" fill="white"/>
<rect opacity="0.66" x="690" y="3" width="2" height="10" rx="1" fill="white"/>
<rect opacity="0.66" x="696" width="2" height="16" rx="1" fill="white"/>
<rect opacity="0.66" x="702" y="3" width="2" height="10" rx="1" fill="white"/>
<rect opacity="0.66" x="708" y="6" width="2" height="4" rx="1" fill="white"/>
<rect opacity="0.66" x="714" y="7" width="2" height="2" rx="1" fill="white"/>
<rect opacity="0.66" x="720" y="7" width="2" height="2" rx="1" fill="white"/>
<rect opacity="0.66" x="726" y="4" width="2" height="8" rx="1" fill="white"/>
<rect opacity="0.66" x="732" y="1" width="2" height="14" rx="1" fill="white"/>
<rect opacity="0.66" x="738" y="6" width="2" height="4" rx="1" fill="white"/>
<rect opacity="0.66" x="744" width="2" height="16" rx="1" fill="white"/>
<rect opacity="0.66" x="750" y="1" width="2" height="14" rx="1" fill="white"/>
<rect opacity="0.66" x="756" y="3" width="2" height="10" rx="1" fill="white"/>
<rect opacity="0.66" x="762" y="3" width="2" height="10" rx="1" fill="white"/>
<rect opacity="0.66" x="768" y="3" width="2" height="10" rx="1" fill="white"/>
<rect opacity="0.66" x="774" y="1" width="2" height="14" rx="1" fill="white"/>
<rect opacity="0.66" x="780" y="3" width="2" height="10" rx="1" fill="white"/>
<rect opacity="0.66" x="786" width="2" height="16" rx="1" fill="white"/>
<rect opacity="0.66" x="792" y="3" width="2" height="10" rx="1" fill="white"/>
<rect opacity="0.66" x="798" y="6" width="2" height="4" rx="1" fill="white"/>
<rect opacity="0.66" x="804" y="7" width="2" height="2" rx="1" fill="white"/>
<rect opacity="0.66" x="810" y="7" width="2" height="2" rx="1" fill="white"/>
<rect opacity="0.66" x="816" y="4" width="2" height="8" rx="1" fill="white"/>
<rect opacity="0.66" x="822" y="1" width="2" height="14" rx="1" fill="white"/>
<rect opacity="0.66" x="828" y="6" width="2" height="4" rx="1" fill="white"/>
<rect opacity="0.66" x="834" width="2" height="16" rx="1" fill="white"/>
<rect opacity="0.66" x="840" y="1" width="2" height="14" rx="1" fill="white"/>
<rect opacity="0.66" x="846" y="3" width="2" height="10" rx="1" fill="white"/>
<rect opacity="0.66" x="852" y="3" width="2" height="10" rx="1" fill="white"/>
<rect opacity="0.66" x="858" y="3" width="2" height="10" rx="1" fill="white"/>
<rect opacity="0.66" x="864" y="1" width="2" height="14" rx="1" fill="white"/>
<rect opacity="0.66" x="870" y="3" width="2" height="10" rx="1" fill="white"/>
<rect opacity="0.66" x="876" width="2" height="16" rx="1" fill="white"/>
<rect opacity="0.66" x="882" y="3" width="2" height="10" rx="1" fill="white"/>
<rect opacity="0.66" x="888" y="6" width="2" height="4" rx="1" fill="white"/>
<rect opacity="0.66" x="894" y="7" width="2" height="2" rx="1" fill="white"/>
<rect opacity="0.66" x="900" y="7" width="2" height="2" rx="1" fill="white"/>
<rect opacity="0.66" x="906" y="4" width="2" height="8" rx="1" fill="white"/>
<rect opacity="0.66" x="912" y="1" width="2" height="14" rx="1" fill="white"/>
<rect opacity="0.66" x="918" y="6" width="2" height="4" rx="1" fill="white"/>
<rect opacity="0.66" x="924" width="2" height="16" rx="1" fill="white"/>
<rect opacity="0.66" x="930" y="1" width="2" height="14" rx="1" fill="white"/>
<rect opacity="0.66" x="936" y="3" width="2" height="10" rx="1" fill="white"/>
<rect opacity="0.66" x="942" y="3" width="2" height="10" rx="1" fill="white"/>
<rect opacity="0.66" x="948" y="3" width="2" height="10" rx="1" fill="white"/>
<rect opacity="0.66" x="954" y="1" width="2" height="14" rx="1" fill="white"/>
<rect opacity="0.66" x="960" y="3" width="2" height="10" rx="1" fill="white"/>
<rect opacity="0.66" x="966" width="2" height="16" rx="1" fill="white"/>
<rect opacity="0.66" x="972" y="3" width="2" height="10" rx="1" fill="white"/>
<rect opacity="0.66" x="978" y="6" width="2" height="4" rx="1" fill="white"/>
<rect opacity="0.66" x="984" y="7" width="2" height="2" rx="1" fill="white"/>
<rect opacity="0.66" x="990" y="7" width="2" height="2" rx="1" fill="white"/>
<rect opacity="0.66" x="996" y="4" width="2" height="8" rx="1" fill="white"/>
<rect opacity="0.66" x="1002" y="1" width="2" height="14" rx="1" fill="white"/>
<rect opacity="0.66" x="1008" y="6" width="2" height="4" rx="1" fill="white"/>
<rect opacity="0.66" x="1014" width="2" height="16" rx="1" fill="white"/>
<rect opacity="0.66" x="1020" y="1" width="2" height="14" rx="1" fill="white"/>
<rect opacity="0.66" x="1026" y="3" width="2" height="10" rx="1" fill="white"/>
<rect opacity="0.66" x="1032" y="3" width="2" height="10" rx="1" fill="white"/>
<rect opacity="0.66" x="1038" y="3" width="2" height="10" rx="1" fill="white"/>
<rect opacity="0.66" x="1044" y="1" width="2" height="14" rx="1" fill="white"/>
<rect opacity="0.66" x="1050" y="3" width="2" height="10" rx="1" fill="white"/>
<rect opacity="0.66" x="1056" width="2" height="16" rx="1" fill="white"/>
<rect opacity="0.66" x="1062" y="3" width="2" height="10" rx="1" fill="white"/>
<rect opacity="0.66" x="1068" y="6" width="2" height="4" rx="1" fill="white"/>
<rect opacity="0.66" x="1074" y="7" width="2" height="2" rx="1" fill="white"/>
<rect opacity="0.66" x="1080" y="7" width="2" height="2" rx="1" fill="white"/>
<rect opacity="0.66" x="1086" y="4" width="2" height="8" rx="1" fill="white"/>
<rect opacity="0.66" x="1092" y="1" width="2" height="14" rx="1" fill="white"/>
<rect opacity="0.66" x="1098" y="6" width="2" height="4" rx="1" fill="white"/>
<rect opacity="0.66" x="1104" width="2" height="16" rx="1" fill="white"/>
<rect opacity="0.66" x="1110" y="1" width="2" height="14" rx="1" fill="white"/>
<rect opacity="0.66" x="1116" y="3" width="2" height="10" rx="1" fill="white"/>
<rect opacity="0.66" x="1122" y="3" width="2" height="10" rx="1" fill="white"/>
<rect opacity="0.66" x="1128" y="3" width="2" height="10" rx="1" fill="white"/>
<rect opacity="0.66" x="1134" y="1" width="2" height="14" rx="1" fill="white"/>
<rect opacity="0.66" x="1140" y="3" width="2" height="10" rx="1" fill="white"/>
<rect opacity="0.66" x="1146" width="2" height="16" rx="1" fill="white"/>
<rect opacity="0.66" x="1152" y="3" width="2" height="10" rx="1" fill="white"/>
<rect opacity="0.66" x="1158" y="6" width="2" height="4" rx="1" fill="white"/>
<rect opacity="0.66" x="1164" y="7" width="2" height="2" rx="1" fill="white"/>
<rect opacity="0.66" x="1170" y="7" width="2" height="2" rx="1" fill="white"/>
<rect opacity="0.66" x="1176" y="4" width="2" height="8" rx="1" fill="white"/>
<rect opacity="0.66" x="1182" y="1" width="2" height="14" rx="1" fill="white"/>
<rect opacity="0.66" x="1188" y="6" width="2" height="4" rx="1" fill="white"/>
<rect opacity="0.66" x="1194" width="2" height="16" rx="1" fill="white"/>
<rect opacity="0.66" x="1200" y="1" width="2" height="14" rx="1" fill="white"/>
<rect opacity="0.66" x="1206" y="3" width="2" height="10" rx="1" fill="white"/>
<rect opacity="0.66" x="1212" y="3" width="2" height="10" rx="1" fill="white"/>
<rect opacity="0.66" x="1218" y="3" width="2" height="10" rx="1" fill="white"/>
<rect opacity="0.66" x="1224" y="1" width="2" height="14" rx="1" fill="white"/>
<rect opacity="0.66" x="1230" y="3" width="2" height="10" rx="1" fill="white"/>
<rect opacity="0.66" x="1236" width="2" height="16" rx="1" fill="white"/>
<rect opacity="0.66" x="1242" y="3" width="2" height="10" rx="1" fill="white"/>
<rect opacity="0.66" x="1248" y="6" width="2" height="4" rx="1" fill="white"/>
<rect opacity="0.66" x="1254" y="7" width="2" height="2" rx="1" fill="white"/>
<rect opacity="0.66" x="1260" y="7" width="2" height="2" rx="1" fill="white"/>
<rect opacity="0.66" x="1266" y="4" width="2" height="8" rx="1" fill="white"/>
<rect opacity="0.66" x="1272" y="1" width="2" height="14" rx="1" fill="white"/>
<rect opacity="0.66" x="1278" y="6" width="2" height="4" rx="1" fill="white"/>
<rect opacity="0.66" x="1284" width="2" height="16" rx="1" fill="white"/>
<rect opacity="0.66" x="1290" y="1" width="2" height="14" rx="1" fill="white"/>
<rect opacity="0.66" x="1296" y="3" width="2" height="10" rx="1" fill="white"/>
<rect opacity="0.66" x="1302" y="3" width="2" height="10" rx="1" fill="white"/>
<rect opacity="0.66" x="1308" y="3" width="2" height="10" rx="1" fill="white"/>
<rect opacity="0.66" x="1314" y="1" width="2" height="14" rx="1" fill="white"/>
<rect opacity="0.66" x="1320" y="3" width="2" height="10" rx="1" fill="white"/>
<rect opacity="0.66" x="1326" width="2" height="16" rx="1" fill="white"/>
<rect opacity="0.66" x="1332" y="3" width="2" height="10" rx="1" fill="white"/>
<rect opacity="0.66" x="1338" y="6" width="2" height="4" rx="1" fill="white"/>
<rect opacity="0.66" x="1344" y="7" width="2" height="2" rx="1" fill="white"/>
</g>
</svg>
